<svg xmlns="http://www.w3.org/2000/svg" viewBox="0 0 64 64"><defs><style>.cls-1{fill:#bc936c;}.cls-2{stroke:#fff;stroke-miterlimit:10;stroke-width:0.5px;}</style></defs><g id="Layer_3" data-name="Layer 3"><circle class="cls-1" cx="32" cy="32" r="32"/></g><g id="Layer_1" data-name="Layer 1"><path class="cls-2" d="M53,53.3h-.4V10.6c0-.28,0-.55,0-.79V9.27a1.1,1.1,0,0,0-1.11-1.12h-.16a1.11,1.11,0,0,0-1.12,1.12v.51l-18.58,0-17.81,0V9.27a1.12,1.12,0,0,0-1.11-1.12h-.17A1.12,1.12,0,0,0,11.4,9.27v1.45a1.09,1.09,0,0,0,0,.18V53.3H11a1.11,1.11,0,0,0-1.11,1.11v.32A1.12,1.12,0,0,0,11,55.85h3.12a1.11,1.11,0,0,0,1.11-1.12v-.32a1.11,1.11,0,0,0-1.11-1.11h-.35a3.44,3.44,0,0,1,1.35-3.47c2.42-2.15,4.81-4.41,7.12-6.61L25,40.57,32,34l4.46,4.21C40.58,42.1,44.82,46.1,49,50a3.35,3.35,0,0,1,1.22,3.34h-.36a1.11,1.11,0,0,0-1.11,1.11v.32a1.11,1.11,0,0,0,1.11,1.12H53a1.12,1.12,0,0,0,1.11-1.12v-.32A1.11,1.11,0,0,0,53,53.3Zm-37.48-38h2v1.87ZM13.8,27.65V22.36h3.77v5.29Zm3.74,2.53v5.26H13.78V30.18ZM13.78,19.86v-3l3.16,3Zm0,28V45.71h2.31Zm3.76-5.15a1.13,1.13,0,0,1-.57.53c-.44,0-.93.06-1.54.06H13.74V38h3.88c0,.33,0,.65,0,1C17.64,40.21,17.64,41.51,17.58,42.75ZM20.06,42V22.78L30.3,32.42Zm23.17-.68-8.11-7.62-1.41-1.32,9.52-8.94Zm.07-25.13c0,1.26,0,2.5,0,3.72a.84.84,0,0,1-.24.48L32,30.81l-1.44-1.35C27.1,26.2,23.69,23,20.3,19.79a1.19,1.19,0,0,1-.33-.66c0-1,0-2,0-3v-.77H43.3Zm2.34,26.49c0-1.21,0-2.41,0-3.67,0-.37,0-.74,0-1.12h4.6v5.35H48.27c-1,0-1.69,0-2.3,0A1.15,1.15,0,0,1,45.64,42.72Zm.09-24.82V15.37h2.7Zm4.46-1v2.95H47.06Zm0,5.43v5.31H45.7V22.35Zm0,7.83v5.29H45.68V30.18Zm0,17.77-2.37-2.23h2.37Zm0-35.07H13.8v-.59H50.26Z"/></g></svg>