<svg id="Layer_1" data-name="Layer 1" xmlns="http://www.w3.org/2000/svg" viewBox="0 0 63.42 63.42"><defs><style>.cls-1{fill:peru;}</style></defs><path class="cls-1" d="M44.17,63.71H40l-.31-.07a.73.73,0,0,1-.67-.56c-.13-.9-.4-1.84.39-2.59a1,1,0,0,0,.15-.21c-.8-.74-1.58-1.48-2.38-2.21-1.43-1.29-2.85-2.57-4.29-3.85-.4-.35-.42-.33-.81,0-2.16,2-4.32,4-6.5,6a1.29,1.29,0,0,0-.49,1.29,2.33,2.33,0,0,1-.49,2.19H19.9a2.38,2.38,0,0,1-.51-1.6,7,7,0,0,0,0-.79.75.75,0,0,1,.5-.77,8.35,8.35,0,0,1,1-.3V26.75h-.1l-.39,1.35Q16,43.93,11.55,59.76c-.29,1-.64,2-1,3.06-.07.23-.18.41-.45.42a.61.61,0,0,1-.67-.82c.24-1.05.53-2.08.77-3.12.28-1.22.51-1-.7-1.43C7.79,57.25,6,56.7,4.26,56.12l-1.45-.44c-.18.62-.34,1.19-.51,1.76-.24.8-.47,1.61-.74,2.4A.62.62,0,0,1,.42,60l-.13-.18v-.49a2.44,2.44,0,0,0,.1-.24L3.72,47l7.11-25.53a2.58,2.58,0,0,1,.26-.59.55.55,0,0,1,.77-.2.63.63,0,0,1,.4.79c-.15.65-.33,1.29-.5,1.94-.11.43-.21.86-.33,1.33l1.76.58,5.7,1.8c.26.08.34,0,.41-.26.2-.8.44-1.6.65-2.4.15-.53.36-1,1-1,0,0,0,0,.05-.07V23c0-5.63,0-11.26,0-16.89,0-1.59.05-3.18.07-4.76A1,1,0,0,1,21.78.29h1a1.11,1.11,0,0,1,.73,1.07c0,1,0,2,.05,3v1H40.5V4.87c0-1.14,0-2.27,0-3.41A1.13,1.13,0,0,1,41.32.29h.9a.67.67,0,0,0,.12.06,1.13,1.13,0,0,1,.79,1.17v23.7H59.48c0-.49,0-.95.09-1.41a.8.8,0,0,1,.68-.77,3.76,3.76,0,0,1,1.06,0,.87.87,0,0,1,.77,1l.06,35.77v.47l.68.15a1.07,1.07,0,0,1,.82.88l.07.25v1.19a1.22,1.22,0,0,1-1.1,1H59.05l-.34-.07A.78.78,0,0,1,58,63c-.09-.92-.35-1.9.54-2.61,0,0,0,0,0-.1-2.38-2-4.78-4-7.17-6.05a.37.37,0,0,0-.58,0c-1.48,1.33-3,2.64-4.46,3.95L44,60.33a3.36,3.36,0,0,1,.32.37,2.08,2.08,0,0,1,.39.73A2.69,2.69,0,0,1,44.17,63.71Zm-1-19.18,0,.12a6.2,6.2,0,0,0,.42.46C45,46.42,46.48,47.73,48,49c.92.8,1.87,1.57,2.81,2.34.43.33.45.31.83,0l6.62-5.92c.33-.29.64-.59,1-.94l-.41,0c-2,0-4,0-6,0-3,0-6,0-9.05.05A5,5,0,0,0,43.17,44.53ZM23.8,45.64l-.15,0c-.13,4.71,0,9.42-.07,14.24l7.81-7.26ZM32,17.57l-7.25,7.59,0,.09c4.76,0,9.53.05,14.3-.11l0-.13ZM40.43,24V8.79l-7.28,7.65ZM23.6,24l7.29-7.65L23.6,8.74ZM39.24,7.66H24.81L32,15.22Zm.82,36.92,0-.09c-5-.13-9.95-.12-15,0,.13.15.19.23.26.3q3.5,3.23,7,6.47c.23.21.38.18.59,0l6.67-6.11Zm3.44-17-.06.11a.59.59,0,0,1,.14.06q3.81,3.18,7.59,6.38c.22.18.34.1.5,0l7.26-6.38a1.42,1.42,0,0,0,.12-.13ZM39.88,42.21l0-.09a1.61,1.61,0,0,0-.23-.22l-7.3-6a.42.42,0,0,0-.64,0q-3.36,2.91-6.74,5.8l-.35.34,0,.14C29.74,42.34,34.81,42.3,39.88,42.21ZM59.45,58.92V46.52L52.4,52.84ZM23.71,28.78c0,.29-.06.47-.06.65,0,2.43,0,4.87-.06,7.3,0,1.16,0,2.32.06,3.47a3.43,3.43,0,0,0,.08.49l7-6.14ZM40.35,40.31l.08-.09V28.33l-7.07,6.19Zm2.95,1.22,6.8-6.05-6.8-5.92A103.9,103.9,0,0,0,43.3,41.53Zm-18.51-14,.33.29,6.2,5.07c.66.54.68.56,1.34,0q3-2.55,5.92-5.12c.05-.05.1-.12.2-.24Zm9,25.16,6.61,6.22V46.52C38.21,48.6,36.05,50.6,33.83,52.68ZM59.46,29.46c-.17.13-.26.19-.35.27l-2.54,2.21C55.4,33,54.23,34.06,53.05,35.1c-.2.18-.23.32,0,.5s.24.27.37.39l5.82,5a1.68,1.68,0,0,0,.26.17ZM43.32,47.19l-.12,0c-.12,3.83-.07,7.66,0,11.49l.12.06,6.56-5.91Zm14.53-5,0-.09-.3-.29-5.42-4.68c-.66-.56-.68-.59-1.35,0C49,38.72,47.15,40.34,45.32,42a2.31,2.31,0,0,0-.22.25C49.4,42.32,53.63,42.33,57.85,42.2Zm-40.5-8.57-7.7-2.49c-.05.15-.11.26-.14.38-.23.88-.45,1.76-.7,2.64-.09.32,0,.44.29.53l7,2.27c.1,0,.22,0,.37.07ZM4.59,49.26l.19.08,7.27,2.33c.2.06.3,0,.35-.21.25-.92.49-1.84.74-2.76a.32.32,0,0,0-.24-.46l-7-2.3c-.2-.06-.33,0-.38.2C5.18,47.17,4.89,48.21,4.59,49.26ZM3.22,54.2,11,56.64c.06-.17.12-.28.15-.4.23-.88.45-1.77.68-2.64.07-.26,0-.38-.24-.46l-7.1-2.33c-.18-.06-.28,0-.34.18C3.82,52,3.53,53.08,3.22,54.2ZM18.68,28.9c-.1-.09-.18-.21-.28-.24-.78-.28-1.56-.55-2.34-.8l-4.58-1.47c-.48-.16-.5-.15-.65.38-.22.83-.43,1.67-.67,2.5-.09.33,0,.45.29.54l4.2,1.35c.95.3,1.91.59,2.86.87.13,0,.28.13.34-.1Zm-4,14.63c-.09-.07-.12-.1-.16-.11L7.2,41.06c-.2-.06-.29,0-.34.2-.26.94-.51,1.89-.76,2.83-.06.23,0,.33.23.4.71.22,1.4.47,2.1.7l4.83,1.52c.18.06.38.15.47-.15C14.05,45.55,14.37,44.54,14.68,43.53Zm1.33-5L8.33,36.06c-.06.17-.11.27-.14.38-.22.74-.45,1.48-.65,2.22s-.17.77.51,1c1.59.54,3.19,1.06,4.79,1.58.63.2,1.26.37,1.9.54.14,0,.33.11.4-.14C15.42,40.63,15.71,39.61,16,38.54Z" transform="translate(-0.29 -0.29)"/></svg>