<svg xmlns="http://www.w3.org/2000/svg" viewBox="0 0 64 64"><defs><style>.cls-1{stroke:#9c9c9c;stroke-miterlimit:10;}.cls-2{fill:#9c9c9c;}</style></defs><g id="Layer_2" data-name="Layer 2"><rect class="cls-1" x="10.68" width="42.46" height="8.96" rx="4.41"/><ellipse class="cls-2" cx="31.91" cy="4.23" rx="4.08" ry="3.74"/><ellipse cx="31.91" cy="4.23" rx="2.86" ry="2.61"/><rect class="cls-1" x="8.06" y="8.96" width="47.68" height="54.78" rx="3.89"/><rect class="cls-2" x="13.61" y="16.07" width="36.59" height="36.52"/><rect class="cls-2" x="14.72" y="12.01" width="34.38" height="2.03" rx="1"/><path d="M48.8,17.36l.07.08a.19.19,0,1,1-.26.26,2.47,2.47,0,0,0-1-.6,2.56,2.56,0,0,0-2.6.57c-.08.08-.16.13-.26.07a.19.19,0,0,1,0-.32,3,3,0,0,1,3.82-.25l0,0Z"/><path d="M45.3,17.84a2.26,2.26,0,0,1,2.86-.11l.22.19c.09.1.1.2,0,.28s-.18.09-.28,0a1.84,1.84,0,0,0-1.37-.53,1.81,1.81,0,0,0-1.19.46l-.1.09a.17.17,0,0,1-.25,0,.18.18,0,0,1,0-.25A.94.94,0,0,1,45.3,17.84Z"/><path d="M47.85,18.38c.12.11.14.19.08.28a.19.19,0,0,1-.31,0,1.15,1.15,0,0,0-1.25-.25,1.52,1.52,0,0,0-.38.24c-.12.09-.22.1-.3,0s-.07-.18,0-.29A1.56,1.56,0,0,1,47.85,18.38Z"/><path d="M47.39,18.88a.2.2,0,0,1,0,.29.18.18,0,0,1-.27,0,.5.5,0,0,0-.72,0,.18.18,0,0,1-.26,0,.19.19,0,0,1,0-.27.89.89,0,0,1,1.09-.1Z"/><path d="M29.94,48.72l-.55,0c-2.25-.16-4.49-.31-6.73-.49-.75,0-1.51-.14-2.25-.26a4.3,4.3,0,0,1-1.09-.39,1,1,0,0,1-.53-.91c0-.55-.08-1.09-.08-1.64A4.23,4.23,0,0,1,19.83,42a4.31,4.31,0,0,1,1-.76,14.24,14.24,0,0,1,3-1.2c.2-.07.23.05.3.15a12.55,12.55,0,0,0,3.25,3.25c.59.4,1.27.71,1.91,1.06a.47.47,0,0,0,.54,0l1.86-1.25c.4.28.83.63,1.31.91.91.55.63.53,1.57.06a11.84,11.84,0,0,0,4.21-3.69c.13-.17.23-.43.41-.49s.44.09.65.17c.68.25,1.35.51,2,.77a4.16,4.16,0,0,1,2.64,3.31,10.15,10.15,0,0,1,.06,2.34c0,.72-.69,1.19-1.58,1.28l-4.24.42-3.66.28-1.59.06-.15,0Z"/><path d="M38,30.19a.23.23,0,0,1-.16-.31,8.76,8.76,0,0,0,.08-3A4.65,4.65,0,0,0,35,23.2a8.43,8.43,0,0,0-6.61,0,4.52,4.52,0,0,0-2.52,2.37,6.13,6.13,0,0,0-.48,3.27c0,.4.11.82.19,1.23l-.15.06c-.54.22-.78.52-.71,1.05a2.82,2.82,0,0,0,.36,1.08c.53.85,1,1.75,1.47,2.6,0,0,0,0,0,0a6.48,6.48,0,0,0,.65.93,5.93,5.93,0,0,0,1.53,1.46,4.91,4.91,0,0,0,6-.11,8,8,0,0,0,2-2.28,11.68,11.68,0,0,0,.62-1.16c.13-.25.3-.51.44-.77a10.12,10.12,0,0,0,.71-1.44A1,1,0,0,0,38,30.19ZM37.61,32c-.11.21-.29.4-.41.6a5.21,5.21,0,0,0-.4.6,9.92,9.92,0,0,1-.91,1.74,7.19,7.19,0,0,1-.74.93,3.82,3.82,0,0,1-.27.32,4.53,4.53,0,0,1-6.23.14,4,4,0,0,1-.46-.46,6,6,0,0,1-.74-.93,9.91,9.91,0,0,1-.87-1.68c-.09-.2-.23-.39-.34-.59a6.49,6.49,0,0,1-.59-1.06.93.93,0,0,1,.24-1c.19-.18.36-.21.54,0a5.17,5.17,0,0,1,.33.47c-.08-.57-.18-1.2-.24-1.83a3.88,3.88,0,0,1,0-.9.92.92,0,0,1,.14-.44,3.66,3.66,0,0,1,2-1.61.58.58,0,0,1,.57.13,9.71,9.71,0,0,0,4.48,2.15,12.87,12.87,0,0,0,2.84.31c.24,0,.33.06.3.27-.08.62-.16,1.22-.22,1.83a1.88,1.88,0,0,0-.05.22,3.55,3.55,0,0,1,.4-.55.35.35,0,0,1,.63.06A1.4,1.4,0,0,1,37.61,32Z"/><path d="M31.93,42.94a13.2,13.2,0,0,0,2.85-2,9.33,9.33,0,0,0,2-2.66A8.78,8.78,0,0,1,39,39.62c-.41.54-.8,1.08-1.24,1.6a11,11,0,0,1-3.64,2.86.67.67,0,0,1-.71,0A9,9,0,0,1,31.93,42.94Z"/><path d="M31.4,43a8,8,0,0,1-1.73,1.25.48.48,0,0,1-.33,0,10.08,10.08,0,0,1-2.49-1.54A13.62,13.62,0,0,1,24.44,40l-.19-.28a8.55,8.55,0,0,1,2.16-1.33A11.32,11.32,0,0,0,31.4,43Z"/><path d="M14.66,20.13h4.95a.79.79,0,0,1,.85.66.77.77,0,0,1-.7.83H16.32v.14c0,.94,0,1.87,0,2.8a.76.76,0,0,1-.45.74.83.83,0,0,1-1.21-.68v-4.5Z"/><path d="M14.66,51.67V47.16a.7.7,0,0,1,.44-.66.84.84,0,0,1,.84,0,.69.69,0,0,1,.37.54,1.21,1.21,0,0,1,0,.19v2.91h3.35a.75.75,0,1,1,0,1.49H14.66Z"/><path d="M47.81,21.63H44.55a.86.86,0,0,1-.84-.47.76.76,0,0,1,.74-1h5s0,.08,0,.11v4.35a.77.77,0,0,1-.76.8.8.8,0,0,1-.89-.72v-3Z"/><path d="M49.46,51.67h-4.9a.86.86,0,0,1-.83-.43.74.74,0,0,1,.72-1.06h3.36v-3a.77.77,0,0,1,.81-.78.78.78,0,0,1,.84.78v4.48Z"/><rect x="16.22" y="34.92" width="31.54" height="0.93" rx="0.32"/><ellipse class="cls-2" cx="31.91" cy="58.45" rx="4.22" ry="4.29"/><path d="M32.79,56.21c.6,0,1.06.41,1,.83a1.46,1.46,0,0,1-.65.88,6.75,6.75,0,0,1-1.45.8c-.68.29-1.38.56-2.08.84l-.1,0a.23.23,0,0,1-.25-.06c-.05-.07,0-.14.09-.18l.5-.18A17.4,17.4,0,0,0,32.5,58a2.43,2.43,0,0,0,.82-.69.52.52,0,0,0,.08-.43.7.7,0,0,0-.92-.3,2,2,0,0,0-.44.23,11.13,11.13,0,0,1-1.56,1,6.82,6.82,0,0,1-1.32.44c-.13,0-.23,0-.27-.07s0-.15.15-.18a6,6,0,0,0,1.18-.39,8.17,8.17,0,0,0,1.43-.88,2.13,2.13,0,0,1,.78-.4Z"/><path d="M32.14,55.34a2.9,2.9,0,0,0-1.62.46,6.55,6.55,0,0,0-.91.72,2.24,2.24,0,0,1-.39.27.25.25,0,0,1-.3,0c-.06-.07,0-.14.08-.21a4,4,0,0,0,.46-.35,4.61,4.61,0,0,1,1.44-.94,3,3,0,0,1,3.08.5,3,3,0,0,1,.69,1.09c.06.16.16.32.24.48a.11.11,0,0,1-.06.16.19.19,0,0,1-.23,0,1.51,1.51,0,0,1-.23-.35,3.81,3.81,0,0,0-.59-1.08A2.2,2.2,0,0,0,32.14,55.34Z"/><path d="M32.4,58.93a3.81,3.81,0,0,1,.45.13l.74.35c.23.11.46.2.69.3l0,0c.09,0,.12.09.08.16a.18.18,0,0,1-.23.07,6.62,6.62,0,0,1-.62-.24c-.33-.14-.65-.3-1-.46a.45.45,0,0,0-.36,0l-1.06.47-.91.4a1.7,1.7,0,0,1-.34.12.2.2,0,0,1-.24-.07c0-.07,0-.13.07-.16.82-.27,1.5-.69,2.28-1A3,3,0,0,1,32.4,58.93Z"/><path d="M29.14,58.93s-.12-.07-.13-.11a.15.15,0,0,1,.09-.14,1.07,1.07,0,0,1,.27-.09,8.39,8.39,0,0,0,2.72-1.25,5.85,5.85,0,0,0,.47-.4.23.23,0,0,1,.23-.06c.13,0,.17.14.06.23a8.7,8.7,0,0,1-.74.59,9.44,9.44,0,0,1-2.8,1.2Z"/><path d="M32.56,55.78c0,.06-.05.11-.15.12a2.9,2.9,0,0,0-1.62.77,4,4,0,0,1-1.49.8l-.09,0a.2.2,0,0,1-.24-.07c0-.06,0-.13.1-.17l.45-.16a3.21,3.21,0,0,0,1.06-.65,3.23,3.23,0,0,1,1.25-.7l.51-.1C32.46,55.62,32.56,55.69,32.56,55.78Z"/><path d="M32.24,59.77a4,4,0,0,1,.41.12l1.2.49c.1,0,.13.11.08.18a.21.21,0,0,1-.26,0l-.94-.39-.24-.09a.52.52,0,0,0-.51,0l-1.28.65-.08,0a.22.22,0,0,1-.25,0c-.07-.06-.06-.13,0-.18l.38-.21,1.12-.54C32,59.83,32.12,59.81,32.24,59.77Z"/><path d="M32.16,60.63a1.49,1.49,0,0,1,.53.15l.49.25c.11.06.14.13.08.19a.23.23,0,0,1-.29,0L32.43,61a.49.49,0,0,0-.53,0c-.15.08-.29.18-.44.27l-.11.07a.21.21,0,0,1-.23,0c-.07-.05-.08-.11,0-.16a2.43,2.43,0,0,1,.91-.5h.15Z"/><path d="M33.31,58.24s.1,0,.12.08a1.77,1.77,0,0,0,1,.65c.12,0,.17.1.13.17a.19.19,0,0,1-.24.08,2,2,0,0,1-1.24-.77C33.05,58.34,33.13,58.25,33.31,58.24Z"/><path d="M34.93,58.35a.17.17,0,0,1-.23.16c-.43-.12-.79-.29-.89-.65,0-.1,0-.17.15-.19s.18,0,.2.12a.65.65,0,0,0,.49.41c.06,0,.13,0,.18.07S34.91,58.34,34.93,58.35Z"/><path d="M40,17.08h1.22A.17.17,0,0,0,41.4,17a1.27,1.27,0,0,1,1.33-.58,1.32,1.32,0,0,1,1.13,1,1.38,1.38,0,0,1-1,1.71,1.32,1.32,0,0,1-1.4-.52.26.26,0,0,0-.25-.13c-.12,0-.24,0-.26-.16s-.11-.09-.18,0-.2.16-.37,0-.21-.12-.32,0-.19.25-.44,0-.19-.14-.32,0-.22.23-.4,0-.15-.21-.22-.31a.2.2,0,0,1,0-.26l.3-.42a.29.29,0,0,1,.28-.15c.25,0,.51,0,.76,0Zm2.8.7a.35.35,0,0,0,.34.37.36.36,0,0,0,0-.72A.35.35,0,0,0,42.82,17.78Z"/></g></svg>