<svg xmlns="http://www.w3.org/2000/svg" viewBox="0 0 64 64"><defs><style>.cls-1{fill:#08e800;}</style></defs><g id="Layer_2" data-name="Layer 2"><rect x="10.69" width="42.63" height="9" rx="4.5"/><ellipse class="cls-1" cx="32" cy="4.25" rx="4.1" ry="3.75"/><ellipse cx="32" cy="4.25" rx="2.87" ry="2.63"/><rect x="8.06" y="9" width="47.87" height="55" rx="3.89"/><rect class="cls-1" x="13.63" y="16.13" width="36.74" height="36.67"/><rect class="cls-1" x="14.74" y="12.06" width="34.51" height="2.04" rx="1"/><path d="M49,17.43l.07.08a.19.19,0,1,1-.26.26,2.5,2.5,0,0,0-1-.6,2.54,2.54,0,0,0-2.6.57c-.08.08-.16.13-.27.07a.2.2,0,0,1,0-.32,2.8,2.8,0,0,1,1.36-.76,3,3,0,0,1,2.47.51l0,0Z"/><path d="M45.45,17.91a2.28,2.28,0,0,1,2.87-.11l.22.19a.2.2,0,0,1,0,.29.19.19,0,0,1-.28,0,1.83,1.83,0,0,0-1.38-.54,1.81,1.81,0,0,0-1.19.46l-.1.09a.18.18,0,0,1-.26,0,.17.17,0,0,1,0-.25A.94.94,0,0,1,45.45,17.91Z"/><path d="M48,18.45c.12.12.14.19.08.28a.19.19,0,0,1-.31,0,1.17,1.17,0,0,0-1.26-.25,1.52,1.52,0,0,0-.38.24c-.12.09-.22.1-.3,0s-.07-.18,0-.28A1.56,1.56,0,0,1,48,18.45Z"/><path d="M47.55,19a.21.21,0,0,1,0,.29.19.19,0,0,1-.27,0,.51.51,0,0,0-.72,0,.17.17,0,0,1-.26,0,.18.18,0,0,1,0-.27.9.9,0,0,1,1.09-.1Z"/><path d="M30,48.91l-.56,0c-2.25-.16-4.5-.31-6.75-.49-.76,0-1.51-.14-2.26-.26a3.86,3.86,0,0,1-1.09-.4,1,1,0,0,1-.54-.91c0-.54-.07-1.09-.08-1.64a4.26,4.26,0,0,1,1.13-3,4.37,4.37,0,0,1,1-.76,14.92,14.92,0,0,1,3-1.21c.2-.06.24.06.3.16a12.63,12.63,0,0,0,3.26,3.26c.6.4,1.28.71,1.92,1.06a.48.48,0,0,0,.55,0c.62-.43,1.24-.84,1.86-1.26.4.28.83.64,1.31.92.93.54.64.53,1.58.06a12,12,0,0,0,4.23-3.71c.13-.17.23-.44.41-.49s.44.09.66.17l2,.77a4.18,4.18,0,0,1,2.64,3.32,9.71,9.71,0,0,1,.07,2.35c0,.73-.7,1.2-1.59,1.28-1.42.14-2.84.3-4.26.43-1.22.11-2.45.19-3.67.28-.53,0-1.07,0-1.6.06l-.15,0Z"/><path d="M38.09,30.31c-.18-.07-.19-.16-.16-.32A9.06,9.06,0,0,0,38,27a4.66,4.66,0,0,0-2.91-3.67,8.46,8.46,0,0,0-6.64,0,4.52,4.52,0,0,0-2.53,2.38A6.19,6.19,0,0,0,25.45,29a10.79,10.79,0,0,0,.19,1.23l-.16.06c-.53.22-.77.52-.71,1a2.88,2.88,0,0,0,.37,1.09c.53.85,1,1.75,1.47,2.61,0,0,0,0,0,0a6.48,6.48,0,0,0,.65.93,6.18,6.18,0,0,0,1.54,1.47,4.92,4.92,0,0,0,6-.12A7,7,0,0,0,36.2,36a7.31,7.31,0,0,0,.64-.93c.22-.37.42-.76.61-1.16s.31-.52.45-.78a10.23,10.23,0,0,0,.71-1.45A1,1,0,0,0,38.09,30.31Zm-.37,1.79c-.11.22-.28.4-.41.61a4.08,4.08,0,0,0-.39.6A10.78,10.78,0,0,1,36,35.06a6.5,6.5,0,0,1-.75.93,1.91,1.91,0,0,1-.27.32,4.53,4.53,0,0,1-6.25.14,4,4,0,0,1-.46-.46,6,6,0,0,1-.74-.93,9.32,9.32,0,0,1-.87-1.69c-.1-.21-.24-.39-.35-.59a6.93,6.93,0,0,1-.59-1.06.94.94,0,0,1,.24-1c.19-.18.36-.21.54,0s.23.34.33.47c-.08-.57-.17-1.2-.24-1.84a3.88,3.88,0,0,1,0-.9A1.13,1.13,0,0,1,26.7,28a3.61,3.61,0,0,1,2.05-1.6.55.55,0,0,1,.57.13,9.74,9.74,0,0,0,4.49,2.15,13,13,0,0,0,2.85.31c.24,0,.34.06.3.28-.08.61-.15,1.22-.22,1.83,0,.06,0,.12-.05.22a5.65,5.65,0,0,1,.4-.55.35.35,0,0,1,.63.06A1.38,1.38,0,0,1,37.72,32.1Z"/><path d="M32,43.11a13.06,13.06,0,0,0,2.86-2,9.23,9.23,0,0,0,2-2.67,8.65,8.65,0,0,1,2.26,1.34c-.42.53-.81,1.08-1.25,1.6a11.22,11.22,0,0,1-3.65,2.87.67.67,0,0,1-.72,0A8.7,8.7,0,0,1,32,43.11Z"/><path d="M31.49,43.14a7.47,7.47,0,0,1-1.74,1.25.45.45,0,0,1-.32,0,10,10,0,0,1-2.5-1.54,13.5,13.5,0,0,1-2.43-2.64l-.18-.28a8.59,8.59,0,0,1,2.16-1.34A11.42,11.42,0,0,0,31.49,43.14Z"/><path d="M14.69,20.21h.11c1.62,0,3.24,0,4.86,0a.8.8,0,0,1,.85.66.76.76,0,0,1-.71.83H16.35v3a.76.76,0,0,1-.45.74.83.83,0,0,1-1.21-.68c0-1.27,0-2.54,0-3.81Z"/><path d="M14.69,51.87v-.1c0-1.47,0-3,0-4.42a.71.71,0,0,1,.44-.67.84.84,0,0,1,.84,0,.69.69,0,0,1,.37.55,1.09,1.09,0,0,1,0,.18v2.93h3.37a.78.78,0,0,1,.8.75.79.79,0,0,1-.77.75H14.69Z"/><path d="M48,21.71H44.69a.84.84,0,0,1-.84-.47.76.76,0,0,1,.74-1c.35,0,.69,0,1,0h4s0,.07,0,.11v4.37a.78.78,0,0,1-.76.8.8.8,0,0,1-.9-.73V21.71Z"/><path d="M49.62,51.87H44.71a.83.83,0,0,1-.84-.43.75.75,0,0,1,.72-1.07H48v-3a.83.83,0,0,1,1.66,0v4.5Z"/><rect x="16.25" y="35.06" width="31.67" height="0.93" rx="0.32"/><ellipse class="cls-1" cx="32" cy="58.68" rx="4.24" ry="4.3"/><path d="M32.89,56.44c.6,0,1.07.4,1,.83a1.46,1.46,0,0,1-.65.88,7,7,0,0,1-1.45.8l-2.09.85-.11,0a.22.22,0,0,1-.25-.06c0-.06,0-.14.09-.18l.51-.18a17.4,17.4,0,0,0,2.66-1.21,2.3,2.3,0,0,0,.83-.7.52.52,0,0,0,.08-.43.7.7,0,0,0-.92-.3,2.12,2.12,0,0,0-.45.23,10.28,10.28,0,0,1-1.56,1,6.42,6.42,0,0,1-1.32.45c-.14,0-.24,0-.27-.07s0-.15.15-.19a5.27,5.27,0,0,0,1.18-.39,7.82,7.82,0,0,0,1.43-.88,2.18,2.18,0,0,1,.79-.4C32.64,56.47,32.77,56.46,32.89,56.44Z"/><path d="M32.24,55.55a3,3,0,0,0-1.63.47,6.11,6.11,0,0,0-.92.72,3,3,0,0,1-.39.28A.23.23,0,0,1,29,57c-.07-.07,0-.13.07-.21a4.22,4.22,0,0,0,.46-.34,4.51,4.51,0,0,1,1.45-1,3,3,0,0,1,3.09.5,3.22,3.22,0,0,1,.7,1.09,4.23,4.23,0,0,0,.23.48c0,.07,0,.12,0,.17a.19.19,0,0,1-.23,0,1.56,1.56,0,0,1-.24-.35,3.7,3.7,0,0,0-.59-1.08A2.24,2.24,0,0,0,32.24,55.55Z"/><path d="M32.49,59.16a3.33,3.33,0,0,1,.45.13c.26.11.5.24.75.36l.7.29,0,0c.09,0,.12.1.08.17a.19.19,0,0,1-.23.07,6.62,6.62,0,0,1-.62-.24l-1-.47a.44.44,0,0,0-.37,0L31.26,60l-.92.41a3.59,3.59,0,0,1-.35.12.19.19,0,0,1-.23-.07c-.05-.07,0-.14.07-.17.81-.26,1.5-.69,2.28-1A1.91,1.91,0,0,1,32.49,59.16Z"/><path d="M29.22,59.17s-.12-.07-.13-.12,0-.11.09-.14a1.15,1.15,0,0,1,.28-.09,8.39,8.39,0,0,0,2.72-1.25c.17-.13.32-.27.48-.4a.22.22,0,0,1,.23-.07c.13,0,.16.14.06.23a8.7,8.7,0,0,1-.74.59,9.43,9.43,0,0,1-2.82,1.21Z"/><path d="M32.66,56a.15.15,0,0,1-.15.13,2.85,2.85,0,0,0-1.63.78,4,4,0,0,1-1.5.79l-.08,0c-.12,0-.21,0-.25-.07s0-.14.1-.18l.45-.15a3.18,3.18,0,0,0,1.07-.66,3.23,3.23,0,0,1,1.25-.7l.52-.1C32.55,55.84,32.66,55.91,32.66,56Z"/><path d="M32.33,60a4.26,4.26,0,0,1,.42.11l1.2.5c.1,0,.13.11.09.18a.25.25,0,0,1-.27.05l-1-.39-.23-.1a.56.56,0,0,0-.52,0L30.79,61l-.09,0a.23.23,0,0,1-.25,0,.11.11,0,0,1,0-.18l.39-.21c.37-.18.74-.37,1.12-.54A1.91,1.91,0,0,1,32.33,60Z"/><path d="M32.25,60.87a1.21,1.21,0,0,1,.54.15l.49.25c.11.06.14.13.08.19a.25.25,0,0,1-.3,0l-.54-.26a.45.45,0,0,0-.53,0c-.15.08-.29.18-.44.27l-.11.07a.21.21,0,0,1-.23,0c-.07,0-.08-.11,0-.16a2.43,2.43,0,0,1,.91-.5h.15Z"/><path d="M33.41,58.47s.1,0,.12.08a1.76,1.76,0,0,0,1,.65c.12,0,.16.1.12.18s-.12.1-.24.07a1.94,1.94,0,0,1-1.24-.77C33.15,58.57,33.22,58.47,33.41,58.47Z"/><path d="M35,58.58a.17.17,0,0,1-.23.16c-.43-.12-.79-.3-.89-.65,0-.1,0-.17.15-.19a.16.16,0,0,1,.21.12c0,.21.24.33.48.41a1,1,0,0,1,.18.07S35,58.57,35,58.58Z"/><path d="M40.15,17.15h1.22a.16.16,0,0,0,.16-.08,1.3,1.3,0,0,1,1.34-.58,1.33,1.33,0,0,1,1.13,1,1.38,1.38,0,0,1-1,1.72,1.32,1.32,0,0,1-1.41-.53.23.23,0,0,0-.25-.12c-.12,0-.24,0-.26-.17s-.12-.08-.18,0-.2.16-.37,0a.2.2,0,0,0-.33,0c-.21.23-.19.26-.44,0s-.18-.14-.32,0-.22.23-.4,0-.15-.21-.22-.31a.2.2,0,0,1,0-.26l.3-.42a.32.32,0,0,1,.28-.16c.26,0,.51,0,.77,0Zm2.81.7a.35.35,0,0,0,.34.37.36.36,0,0,0,0-.72A.34.34,0,0,0,43,17.85Z"/></g></svg>