<svg xmlns="http://www.w3.org/2000/svg" viewBox="0 0 64 64"><defs><style>.cls-1{fill:#08e800;}</style></defs><g id="Layer_2" data-name="Layer 2"><path class="cls-1" d="M35.55,47.07l0-.63a.2.2,0,0,1,.18-.22l14.85-.71c.11,0,.19.09.2.21l0,.63a.2.2,0,0,1-.18.22l-14.85.71C35.64,47.29,35.56,47.19,35.55,47.07Z"/><path class="cls-1" d="M47,40a.24.24,0,0,1,0-.3l.31-.5a.32.32,0,0,1,.3-.19c.27,0,.55,0,.83,0h0l1.33-.06a.16.16,0,0,0,.16-.1,1.41,1.41,0,0,1,1.44-.74,1.44,1.44,0,0,1,1.26,1.1,1.62,1.62,0,0,1-1,2,1.4,1.4,0,0,1-1.55-.54.25.25,0,0,0-.27-.13c-.13,0-.26,0-.29-.18s-.13-.09-.2,0-.21.2-.4,0-.24-.12-.36,0-.19.3-.47,0-.21-.15-.35,0-.23.27-.44,0Z"/><path class="cls-1" d="M55.89,48.44l0,.63a.2.2,0,0,1-.18.22l-19.92,1a.2.2,0,0,1-.2-.21l0-.62a.2.2,0,0,1,.18-.23l19.92-1C55.79,48.22,55.88,48.32,55.89,48.44Z"/><path class="cls-1" d="M56.57,40.71a.24.24,0,0,1,0,.33.19.19,0,0,1-.29,0,.53.53,0,0,0-.79,0,.19.19,0,0,1-.28,0,.23.23,0,0,1,0-.32.92.92,0,0,1,1.17-.16Z"/><path class="cls-1" d="M57.05,40.1c.14.13.16.21.1.32a.21.21,0,0,1-.34,0,1.19,1.19,0,0,0-1.37-.23,2,2,0,0,0-.41.3c-.12.11-.23.13-.32,0s-.08-.21,0-.34A1.61,1.61,0,0,1,57.05,40.1Z"/><path class="cls-1" d="M57.61,39.54a.24.24,0,0,1,0,.33c-.08.1-.19.1-.3,0a1.94,1.94,0,0,0-1.52-.55,1.91,1.91,0,0,0-1.27.59l-.11.12a.19.19,0,0,1-.28,0,.23.23,0,0,1,0-.3l.1-.12a2.36,2.36,0,0,1,3.11-.27A2.52,2.52,0,0,1,57.61,39.54Z"/><path class="cls-1" d="M58.15,39.28a.2.2,0,0,1-.3,0,2.69,2.69,0,0,0-3.91.14c-.09.09-.17.15-.28.09a.22.22,0,0,1,0-.37,3.1,3.1,0,0,1,1.45-.94,3,3,0,0,1,2.7.46l0,0,.24.19.08.08A.23.23,0,0,1,58.15,39.28Z"/><path class="cls-1" d="M34.22,9.84,34.34,7c0-.17,0-.34,0-.53h.07l3.39.2a.58.58,0,0,1,.57.53.55.55,0,0,1-.52.59h-.17L35.6,7.68h-.13v.11l-.09,2.09a.54.54,0,0,1-.34.52A.58.58,0,0,1,34.22,9.84Z"/><path class="cls-1" d="M43.5,22.5a9.06,9.06,0,0,0,3.22,4.15,5,5,0,0,1-1.12,1.13.21.21,0,0,1-.2,0,6.4,6.4,0,0,1-1.61-1.39A11.55,11.55,0,0,1,42.24,24l-.12-.25A5.63,5.63,0,0,1,43.5,22.5Z"/><path class="cls-1" d="M50.2,22.4a5.76,5.76,0,0,1,1.44,1.21c-.26.48-.51,1-.8,1.44a8,8,0,0,1-2.34,2.6.32.32,0,0,1-.46,0,6.73,6.73,0,0,1-1-1,9.22,9.22,0,0,0,1.83-1.81A9,9,0,0,0,50.2,22.4Z"/><path class="cls-1" d="M42.64,17a3.58,3.58,0,0,1-.23-1,.86.86,0,0,1,.45-.94L43,15c0-.37-.11-.75-.13-1.11a7.63,7.63,0,0,1,.31-3,3.66,3.66,0,0,1,1.62-2.15,4,4,0,0,1,4.26,0A4.25,4.25,0,0,1,50.9,12a11.41,11.41,0,0,1,0,2.74c0,.14,0,.22.1.28a1.07,1.07,0,0,1,.34,1.24c-.12.45-.3.88-.46,1.31-.09.23-.2.46-.29.7s-.25.71-.39,1.05h6.92a.19.19,0,0,1,.19.19V20a.19.19,0,0,1-.19.18H49.74a5.88,5.88,0,0,1-.87,1.22,2.47,2.47,0,0,1-3.87.11,5.07,5.07,0,0,1-1-1.33H37.13a.19.19,0,0,1-.19-.18v-.47a.19.19,0,0,1,.19-.19H43.6s0,0,0,0C43.27,18.53,43,17.72,42.64,17Z"/><path class="cls-1" d="M54.18,31.14l-2.73.38c-.78.1-1.57.18-2.35.25-.34,0-.69,0-1,.06l-.1,0H45.78l-.36-.05c-1.44-.14-2.89-.28-4.33-.44a12.17,12.17,0,0,1-1.45-.24,2.12,2.12,0,0,1-.7-.36A1,1,0,0,1,38.6,30c0-.49-.05-1-.06-1.49a4.91,4.91,0,0,1,.73-2.67,3.28,3.28,0,0,1,.65-.69A8,8,0,0,1,41.86,24c.12-.06.15.05.19.14a10.47,10.47,0,0,0,2.09,2.95c.38.36.82.64,1.23,1a.24.24,0,0,0,.35,0c.4-.39.8-.76,1.2-1.14.26.26.53.57.84.83.59.49.4.48,1,.05a9.24,9.24,0,0,0,2.71-3.35c.09-.16.15-.39.27-.44s.28.08.42.15c.43.23.87.46,1.29.7a3.77,3.77,0,0,1,1.7,3,11.54,11.54,0,0,1,0,2.12A1.15,1.15,0,0,1,54.18,31.14Z"/><path class="cls-1" d="M58.35,29.69V33H54.93a.59.59,0,0,1-.58-.32.55.55,0,0,1,.5-.8H57.2V29.69a.58.58,0,1,1,1.15,0Z"/><path class="cls-1" d="M58.74,7.79v.09l-.18,3.24a.55.55,0,0,1-.56.56.58.58,0,0,1-.59-.59c0-.72.08-1.44.11-2.16a.31.31,0,0,0,0-.1H57.4l-2.15-.15a.62.62,0,0,1-.57-.39.55.55,0,0,1,.56-.73l.72,0,2.66.18Z"/><path class="cls-1" d="M13.91,34.17v.45a1.13,1.13,0,0,1-1.13,1.14H9.69a1.14,1.14,0,0,1-1.14-1.14v-.45A1.14,1.14,0,0,1,9.69,33h3.09A1.13,1.13,0,0,1,13.91,34.17Z"/><path class="cls-1" d="M13.91,38.58V39a1.13,1.13,0,0,1-1.13,1.14H9.69A1.14,1.14,0,0,1,8.55,39v-.44a1.14,1.14,0,0,1,1.14-1.14h3.09A1.13,1.13,0,0,1,13.91,38.58Z"/><path class="cls-1" d="M21.53,34.17v.45a1.14,1.14,0,0,1-1.14,1.14H17.3a1.14,1.14,0,0,1-1.13-1.14v-.45A1.14,1.14,0,0,1,17.3,33h3.09A1.14,1.14,0,0,1,21.53,34.17Z"/><path class="cls-1" d="M21.67,38.58V39a1.14,1.14,0,0,1-1.14,1.14H17.44A1.14,1.14,0,0,1,16.31,39v-.44a1.14,1.14,0,0,1,1.13-1.14h3.09A1.14,1.14,0,0,1,21.67,38.58Z"/><path class="cls-1" d="M29.15,34.17v.45A1.13,1.13,0,0,1,28,35.76H24.93a1.14,1.14,0,0,1-1.14-1.14v-.45A1.14,1.14,0,0,1,24.93,33H28A1.13,1.13,0,0,1,29.15,34.17Z"/><path class="cls-1" d="M29.15,38.64v.45A1.13,1.13,0,0,1,28,40.23H24.93a1.14,1.14,0,0,1-1.14-1.14v-.45a1.14,1.14,0,0,1,1.14-1.13H28A1.13,1.13,0,0,1,29.15,38.64Z"/><path class="cls-1" d="M25.45,53.56l-2.73,4.23a.65.65,0,0,1-.54.31.63.63,0,0,1-.37-.12.71.71,0,0,1-.17-1l2.54-3.93-2.54-4a.76.76,0,0,1-.11-.38.69.69,0,0,1,.29-.57.63.63,0,0,1,.91.18l2.72,4.24a.64.64,0,0,1,.1.44A.65.65,0,0,1,25.45,53.56Z"/><path class="cls-1" d="M12.81,57.59a.73.73,0,0,1-.2,1,.69.69,0,0,1-.41.13.72.72,0,0,1-.6-.32L9.16,54.82l-.59-.88a.6.6,0,0,1-.13-.38,1,1,0,0,1,0-.17.72.72,0,0,1,.11-.47l3-4.47a.73.73,0,0,1,1.33.4.69.69,0,0,1-.13.41L10,53.44Z"/><path class="cls-1" d="M34.1,54a6,6,0,0,1-5.33-2.57c-1.18-1.55-2.26-3.2-3.37-4.81a5.15,5.15,0,0,0-4.31-2.31c-.65,0-1.3,0-1.93,0-4.52.17-9,.37-13.55.54-.53,0-.75.17-.74.82,0,4.16,0,8.33,0,12.5,0,.73,0,1.45,0,2.18a5.58,5.58,0,0,0,.05.73,2.84,2.84,0,0,0,2.38,2.65l.61.08-2.87-.29a20,20,0,0,1-.82-2.44,1.39,1.39,0,0,1-.06-.4,1.06,1.06,0,0,1,0-.25C4,55.63,4.1,50.81,4.1,46c0-.38,0-.92-.35-1.11a2.27,2.27,0,0,1-1.19-2.5V16.28a14,14,0,0,0,.1-1.45c0-.68,0-1.5,0-2.35,0-.68,0-1.39,0-2.07s0-1.24,0-1.78c0,0,0,0,0,0s0,0,0,0a0,0,0,0,0,0,0v0c0-.65,0-1.21,0-1.59V6.31c0-.27.11-2,.11-2.21l.06-.34,0-.12L3,2.8s0,0,0,0A7.71,7.71,0,0,1,4.75.22h0L4.81.15H4.9L7.49,0h0A3.17,3.17,0,0,0,6,.47,3.87,3.87,0,0,0,4.44,4v.1c0,.57,0,1.15,0,1.74,0,.34,0,.69,0,1v8.63h0q0,7.15,0,14.3,0,6.81,0,13.64c0,.75.17,1,.84,1,1.46-.14,2.9-.21,4.35-.28,3.9-.17,7.81-.38,11.7-.47a5.34,5.34,0,0,1,4.59,2.54c.94,1.39,2,2.69,2.91,4.11a7.91,7.91,0,0,0,3.19,3,5.6,5.6,0,0,0,1.08.41,2.35,2.35,0,0,0,.35.11C33.65,53.84,33.88,53.93,34.1,54Z"/><path class="cls-1" d="M4.81.15,4.75.21l0-.06Z"/><path class="cls-1" d="M4.75.21l0-.06a6,6,0,0,0-.61.13A1.25,1.25,0,0,1,4.8.14h0Z"/><path class="cls-1" d="M8.16,63.85l-.14,0h.1S8.15,63.83,8.16,63.85Z"/><path class="cls-1" d="M9.16,54.82l-.59-.88a.6.6,0,0,1-.13-.38A1.26,1.26,0,0,1,9.16,54.82Z"/></g><g id="Layer_1" data-name="Layer 1"><path d="M64.14,7.6a4,4,0,0,0-.9-3.19s-.06-.07-.09-.07l-.07-.09s0,0-.08,0a9,9,0,0,0-1.22-.47,4.66,4.66,0,0,0-1.14-.24c-3.2-.21-6.4-.42-9.6-.65s-6.52-.43-9.79-.66C36.16,1.86,31.08,1.49,26,1.13,22.44.89,18.91.64,15.38.42,12.87.26,10.36.05,7.86,0a2.23,2.23,0,0,0-.37,0A3.17,3.17,0,0,0,6,.47,3.87,3.87,0,0,0,4.44,4v.1c0,.57,0,1.15,0,1.74,0,.34,0,.69,0,1v8.63h0q0,7.15,0,14.3,0,6.81,0,13.64c0,.75.17,1,.84,1,1.46-.14,2.9-.21,4.35-.28,3.9-.17,7.81-.38,11.7-.47a5.34,5.34,0,0,1,4.59,2.54c.94,1.39,2,2.69,2.91,4.11a7.91,7.91,0,0,0,3.19,3,5.6,5.6,0,0,0,1.08.41,2.35,2.35,0,0,0,.35.11c.22.05.45.14.67.21a6,6,0,0,1-5.33-2.57c-1.18-1.55-2.26-3.2-3.37-4.81a5.15,5.15,0,0,0-4.31-2.31c-.65,0-1.3,0-1.93,0-4.52.17-9,.37-13.55.54-.53,0-.75.17-.74.82,0,4.16,0,8.33,0,12.5,0,.73,0,1.45,0,2.18a5.58,5.58,0,0,0,.05.73,2.84,2.84,0,0,0,2.38,2.65l.61.08h.19a6.86,6.86,0,0,0,1.2,0c3.77-.31,7.56-.66,11.33-1l16.92-1.63,10-1c4.25-.44,8.49-.91,12.74-1.31,1.92-.17,2.78-.83,3.28-3a13.49,13.49,0,0,0,.3-2.36Q64,43.84,64,34.14c0-.69,0-1.39,0-2.08l0-9.34V15.55a.75.75,0,0,1,.06.31l.09-8.26ZM13.91,39a1.13,1.13,0,0,1-1.13,1.14H9.69A1.14,1.14,0,0,1,8.55,39v-.44a1.14,1.14,0,0,1,1.14-1.14h3.09a1.13,1.13,0,0,1,1.13,1.14Zm0-4.4a1.13,1.13,0,0,1-1.13,1.14H9.69a1.14,1.14,0,0,1-1.14-1.14v-.45A1.14,1.14,0,0,1,9.69,33h3.09a1.13,1.13,0,0,1,1.13,1.13Zm-2.1-5.86c-.7,0-1.32-.31-1.35-1.11a69.88,69.88,0,0,1,.15-7.22c.21.8.45,1.6.6,2.41s.51,1.25,1.36,1.2C14.63,24,16.7,24,18.76,24a9,9,0,0,0,1-.1L19,21.73c-.49-1.44-1-2.88-1.44-4.32a1,1,0,0,0-1.05-.85c-1.77-.07-3.56-.23-5.34-.3-.58,0-.82-.22-.85-.79a.82.82,0,0,1,0-.23c0-.92,0-1.84,0-2.76V7.17a.55.55,0,0,1-.18,0h.18l.07,0,5.28.12.4,0c1.22,0,2.43.09,3.65.15s1.78.51,1.78,2.05c0,1,0,2,0,3q0,4.47,0,8.94c0,1.86,0,3.73,0,5.59,0,1.23-.49,1.73-1.58,1.75C17.21,28.76,14.5,28.74,11.81,28.76Zm4.36,5.41A1.14,1.14,0,0,1,17.3,33h3.09a1.14,1.14,0,0,1,1.14,1.13v.45a1.14,1.14,0,0,1-1.14,1.14H17.3a1.14,1.14,0,0,1-1.13-1.14ZM21.67,39a1.14,1.14,0,0,1-1.14,1.14H17.44A1.14,1.14,0,0,1,16.31,39v-.44a1.14,1.14,0,0,1,1.13-1.14h3.09a1.14,1.14,0,0,1,1.14,1.14Zm7.48.07A1.13,1.13,0,0,1,28,40.23H24.93a1.14,1.14,0,0,1-1.14-1.14v-.45a1.14,1.14,0,0,1,1.14-1.13H28a1.13,1.13,0,0,1,1.13,1.13Zm0-4.47A1.13,1.13,0,0,1,28,35.76H24.93a1.14,1.14,0,0,1-1.14-1.14v-.45A1.14,1.14,0,0,1,24.93,33H28a1.13,1.13,0,0,1,1.13,1.13ZM30.67,8.56h0a2.86,2.86,0,1,1-2.78-3.49,2.46,2.46,0,0,1,.67.09h0a2.85,2.85,0,0,1,2.18,2.76A2.59,2.59,0,0,1,30.67,8.56Zm-17.86,49a.73.73,0,0,1-.2,1,.69.69,0,0,1-.41.13.72.72,0,0,1-.6-.32L9.16,54.82l-.59-.88a.6.6,0,0,1-.13-.38,1,1,0,0,1,0-.17.72.72,0,0,1,.11-.47l3-4.47a.73.73,0,0,1,1.33.4.69.69,0,0,1-.13.41L10,53.44Zm12.64-4-2.73,4.23a.65.65,0,0,1-.54.31.63.63,0,0,1-.37-.12.71.71,0,0,1-.17-1l2.54-3.93-2.54-4a.76.76,0,0,1-.11-.38.69.69,0,0,1,.29-.57.63.63,0,0,1,.91.18l2.72,4.24a.64.64,0,0,1,.1.44A.65.65,0,0,1,25.45,53.56ZM59.39,43.32h0c0,2,0,4,0,6,0,1.21-.24,1.46-1.27,1.54-5.83.46-11.68.89-17.51,1.36-1.86.15-3.71.36-5.58.52a2.54,2.54,0,0,1-.39,0c-.93,0-1.23-.51-1.23-1.75q0-6.61,0-13.21c0-1.37.09-1.52,1.24-1.56h.09c2.29-.07,4.57-.14,6.86-.19l16.3-.46c1.16,0,1.52.35,1.53,1.67Zm.08-34.68c-.06,1.51,0,3,0,4.55V20c0,.22,0,.38,0,.5q-.07,6.09-.14,12.19c0,1.26-.22,1.54-1.3,1.56q-7.74.12-15.5.28c-2.48,0-5,.1-7.45.13h-.41c-1.07,0-1.17-.27-1.17-1.78V7.05c0-1.55.23-1.81,1.58-1.72,2.7.16,5.41.38,8.1.55l15.63,1,.76,0C59.47,7.57,59.48,8.42,59.47,8.64Z"/><path class="cls-1" d="M21.52,12.48q0,4.47,0,8.94c0,1.86,0,3.73,0,5.59,0,1.23-.49,1.73-1.58,1.75-2.7,0-5.41,0-8.1,0-.7,0-1.32-.31-1.35-1.11a69.88,69.88,0,0,1,.15-7.22c.21.8.45,1.6.6,2.41s.51,1.25,1.36,1.2C14.63,24,16.7,24,18.76,24a9,9,0,0,0,1-.1L19,21.73c-.49-1.44-1-2.88-1.44-4.32a1,1,0,0,0-1.05-.85c-1.77-.07-3.56-.23-5.34-.3-.58,0-.82-.22-.85-.79a.82.82,0,0,1,0-.23c0-.92,0-1.84,0-2.76V7.17a.55.55,0,0,1-.18,0h.18l.07,0,5.28.12.4,0c1.22,0,2.43.09,3.65.15s1.78.51,1.78,2.05C21.52,10.5,21.52,11.49,21.52,12.48Z"/><path class="cls-1" d="M59.51,6.91l-.76,0-15.63-1c-2.69-.17-5.4-.39-8.1-.55-1.35-.09-1.58.17-1.58,1.72V32.86c0,1.51.1,1.76,1.17,1.78H35c2.48,0,5-.1,7.45-.13q7.76-.16,15.5-.28c1.08,0,1.3-.3,1.3-1.56q.07-6.1.14-12.19c0-.12,0-.28,0-.5V13.19c0-1.53,0-3,0-4.55C59.48,8.42,59.47,7.57,59.51,6.91ZM42.86,15,43,15c0-.37-.11-.75-.13-1.11a7.63,7.63,0,0,1,.31-3,3.66,3.66,0,0,1,1.62-2.15,4,4,0,0,1,4.26,0A4.25,4.25,0,0,1,50.9,12a11.41,11.41,0,0,1,0,2.74c0,.14,0,.22.1.28a1.07,1.07,0,0,1,.34,1.24c-.12.45-.3.88-.46,1.31-.09.23-.2.46-.29.7s-.25.71-.39,1.05h6.92a.19.19,0,0,1,.19.19V20a.19.19,0,0,1-.19.18H49.74a5.88,5.88,0,0,1-.87,1.22,2.47,2.47,0,0,1-3.87.11,5.07,5.07,0,0,1-1-1.33H37.13a.19.19,0,0,1-.19-.18v-.47a.19.19,0,0,1,.19-.19H43.6s0,0,0,0c-.32-.78-.6-1.59-1-2.36a3.58,3.58,0,0,1-.23-1A.86.86,0,0,1,42.86,15Zm8.78,8.59c-.26.48-.51,1-.8,1.44a8,8,0,0,1-2.34,2.6.32.32,0,0,1-.46,0,6.73,6.73,0,0,1-1-1,9.22,9.22,0,0,0,1.83-1.81A9,9,0,0,0,50.2,22.4,5.76,5.76,0,0,1,51.64,23.61Zm-4.92,3a5,5,0,0,1-1.12,1.13.21.21,0,0,1-.2,0,6.4,6.4,0,0,1-1.61-1.39A11.55,11.55,0,0,1,42.24,24l-.12-.25A5.63,5.63,0,0,1,43.5,22.5,9.06,9.06,0,0,0,46.72,26.65ZM34.34,7c0-.17,0-.34,0-.53h.07l3.39.2a.58.58,0,0,1,.57.53.55.55,0,0,1-.52.59h-.17L35.6,7.68h-.13v.11l-.09,2.09a.54.54,0,0,1-.34.52.58.58,0,0,1-.82-.55Zm3.47,26H34.28V33c0-1.1,0-2.2,0-3.29a.52.52,0,0,1,.3-.5h0a.59.59,0,0,1,.56,0,.54.54,0,0,1,.26.41v.14c0,.69,0,1.37,0,2.06v.11h2.35a.59.59,0,0,1,.56.56A.58.58,0,0,1,37.81,33Zm13.64-1.52c-.78.1-1.57.18-2.35.25-.34,0-.69,0-1,.06l-.1,0H45.78l-.36-.05c-1.44-.14-2.89-.28-4.33-.44a12.17,12.17,0,0,1-1.45-.24,2.12,2.12,0,0,1-.7-.36A1,1,0,0,1,38.6,30c0-.49-.05-1-.06-1.49a4.91,4.91,0,0,1,.73-2.67,3.28,3.28,0,0,1,.65-.69A8,8,0,0,1,41.86,24c.12-.06.15.05.19.14a10.47,10.47,0,0,0,2.09,2.95c.38.36.82.64,1.23,1a.24.24,0,0,0,.35,0c.4-.39.8-.76,1.2-1.14.26.26.53.57.84.83.59.49.4.48,1,.05a9.24,9.24,0,0,0,2.71-3.35c.09-.16.15-.39.27-.44s.28.08.42.15c.43.23.87.46,1.29.7a3.77,3.77,0,0,1,1.7,3,11.54,11.54,0,0,1,0,2.12,1.15,1.15,0,0,1-1,1.17ZM58.35,33H54.93a.59.59,0,0,1-.58-.32.55.55,0,0,1,.5-.8H57.2V29.69a.58.58,0,1,1,1.15,0Zm.39-25.16-.18,3.24a.55.55,0,0,1-.56.56.58.58,0,0,1-.59-.59c0-.72.08-1.44.11-2.16a.31.31,0,0,0,0-.1H57.4l-2.15-.15a.62.62,0,0,1-.57-.39.55.55,0,0,1,.56-.73l.72,0,2.66.18h.12Z"/><path class="cls-1" d="M59.39,37.23c0-1.32-.37-1.68-1.53-1.67L41.56,36c-2.29,0-4.57.12-6.86.19h-.09c-1.15,0-1.24.19-1.24,1.56q0,6.58,0,13.21c0,1.24.3,1.73,1.23,1.75a2.54,2.54,0,0,0,.39,0c1.87-.16,3.72-.37,5.58-.52,5.83-.47,11.68-.9,17.51-1.36,1-.08,1.27-.33,1.27-1.54,0-2,0-4,0-6h0ZM47,39.73l.31-.5a.32.32,0,0,1,.3-.19c.27,0,.55,0,.83,0h0l1.33-.06a.16.16,0,0,0,.16-.1,1.41,1.41,0,0,1,1.44-.74,1.44,1.44,0,0,1,1.26,1.1,1.62,1.62,0,0,1-1,2,1.4,1.4,0,0,1-1.55-.54.25.25,0,0,0-.27-.13c-.13,0-.26,0-.29-.18s-.13-.09-.2,0-.21.2-.4,0-.24-.12-.36,0-.19.3-.47,0-.21-.15-.35,0-.23.27-.44,0L47,40A.24.24,0,0,1,47,39.73Zm-11.5,6.71a.2.2,0,0,1,.18-.22l14.85-.71c.11,0,.19.09.2.21l0,.63a.2.2,0,0,1-.18.22l-14.85.71c-.11,0-.19-.09-.2-.21Zm20.2,2.85-19.92,1a.2.2,0,0,1-.2-.21l0-.62a.2.2,0,0,1,.18-.23l19.92-1c.1,0,.19.09.2.21l0,.63A.2.2,0,0,1,55.73,49.29ZM56.62,41a.19.19,0,0,1-.29,0,.53.53,0,0,0-.79,0,.19.19,0,0,1-.28,0,.23.23,0,0,1,0-.32.92.92,0,0,1,1.17-.16l.13.09A.24.24,0,0,1,56.62,41Zm.53-.62a.21.21,0,0,1-.34,0,1.19,1.19,0,0,0-1.37-.23,2,2,0,0,0-.41.3c-.12.11-.23.13-.32,0s-.08-.21,0-.34a1.61,1.61,0,0,1,2.31-.12C57.19,40.23,57.21,40.31,57.15,40.42Zm.49-.55c-.08.1-.19.1-.3,0a1.94,1.94,0,0,0-1.52-.55,1.91,1.91,0,0,0-1.27.59l-.11.12a.19.19,0,0,1-.28,0,.23.23,0,0,1,0-.3l.1-.12a2.36,2.36,0,0,1,3.11-.27,2.52,2.52,0,0,1,.25.21A.24.24,0,0,1,57.64,39.87Zm.51-.59a.2.2,0,0,1-.3,0,2.69,2.69,0,0,0-3.91.14c-.09.09-.17.15-.28.09a.22.22,0,0,1,0-.37,3.1,3.1,0,0,1,1.45-.94,3,3,0,0,1,2.7.46l0,0,.24.19.08.08A.23.23,0,0,1,58.15,39.28Z"/><path d="M5.06,63.52c-.09,0-.19-.07-.28-.12-2.58-1.06-4-2.78-4-4.9-.06-5,.46-10-.12-15-1-8.72-.09-17.42-.55-26.14a1.54,1.54,0,0,1,0-.37v-.11c0-.72,0-3.22,0-3.69,0-.91,0-1.23,0-2.15,0-.2,0-1,0-1.29C-.23,6.35.58,1.37,4.13.29h0A6,6,0,0,1,4.77.15l0,.06h0A7.71,7.71,0,0,0,3,2.76s0,0,0,0a7.12,7.12,0,0,0-.24.84l0,.12-.06.34c0,.16-.15,1.94-.11,2.21v.63c0,.38,0,.94,0,1.59v0a0,0,0,0,1,0,0s0,0,0,0,0,0,0,0c0,.54,0,1.15,0,1.78s0,1.39,0,2.07c0,.85,0,1.67,0,2.35a14,14,0,0,1-.1,1.45V42.4a2.27,2.27,0,0,0,1.19,2.5c.35.19.35.73.35,1.11,0,4.8-.06,9.62.06,14.42a1.06,1.06,0,0,0,0,.25,1.39,1.39,0,0,0,.06.4A20,20,0,0,0,5.06,63.52Z"/><path d="M4.82.14h0L4.75.21l0-.06h.05Z"/><path d="M38.4,7.22a.55.55,0,0,1-.52.59h-.17L35.6,7.68h-.13v.11l-.09,2.09a.54.54,0,0,1-.34.52.58.58,0,0,1-.82-.55L34.34,7c0-.17,0-.34,0-.53h.07l3.39.2A.58.58,0,0,1,38.4,7.22Z"/><path d="M38.35,32.48a.58.58,0,0,1-.54.56H34.28V33c0-1.1,0-2.2,0-3.29a.52.52,0,0,1,.3-.5h0a.59.59,0,0,1,.56,0,.54.54,0,0,1,.26.41v.14c0,.69,0,1.37,0,2.06v.11h2.35A.59.59,0,0,1,38.35,32.48Z"/><path d="M58.74,7.79v.09l-.18,3.24a.55.55,0,0,1-.56.56.58.58,0,0,1-.59-.59c0-.72.08-1.44.11-2.16a.31.31,0,0,0,0-.1H57.4l-2.15-.15a.62.62,0,0,1-.57-.39.55.55,0,0,1,.56-.73l.72,0,2.66.18Z"/><path d="M58.35,29.69V33H54.93a.59.59,0,0,1-.58-.32.55.55,0,0,1,.5-.8H57.2V29.69a.58.58,0,1,1,1.15,0Z"/><path d="M55.2,30a1.15,1.15,0,0,1-1,1.17l-2.73.38c-.78.1-1.57.18-2.35.25-.34,0-.69,0-1,.06l-.1,0H45.78l-.36-.05c-1.44-.14-2.89-.28-4.33-.44a12.17,12.17,0,0,1-1.45-.24,2.12,2.12,0,0,1-.7-.36A1,1,0,0,1,38.6,30c0-.49-.05-1-.06-1.49a4.91,4.91,0,0,1,.73-2.67,3.28,3.28,0,0,1,.65-.69A8,8,0,0,1,41.86,24c.12-.06.15.05.19.14a10.47,10.47,0,0,0,2.09,2.95c.38.36.82.64,1.23,1a.24.24,0,0,0,.35,0c.4-.39.8-.76,1.2-1.14.26.26.53.57.84.83.59.49.4.48,1,.05a9.24,9.24,0,0,0,2.71-3.35c.09-.16.15-.39.27-.44s.28.08.42.15c.43.23.87.46,1.29.7a3.77,3.77,0,0,1,1.7,3A11.54,11.54,0,0,1,55.2,30Z"/><path d="M51,15c-.11-.06-.12-.14-.1-.28a11.41,11.41,0,0,0,0-2.74A4.25,4.25,0,0,0,49,8.69a4,4,0,0,0-4.26,0,3.66,3.66,0,0,0-1.62,2.15,7.63,7.63,0,0,0-.31,3c0,.36.08.74.13,1.11l-.11.06a.86.86,0,0,0-.45.94,3.58,3.58,0,0,0,.23,1c.35.77.63,1.58,1,2.36,0,0,0,0,0,0a5.94,5.94,0,0,0,.41.84,5.07,5.07,0,0,0,1,1.33,2.47,2.47,0,0,0,3.87-.11,5.88,5.88,0,0,0,.87-1.22,7.27,7.27,0,0,0,.41-.84q.21-.51.39-1.05c.09-.24.2-.47.29-.7.16-.43.34-.86.46-1.31A1.07,1.07,0,0,0,51,15Zm-.23,1.62c-.07.2-.19.37-.27.55a3.87,3.87,0,0,0-.25.55,11,11,0,0,1-.59,1.58,6.3,6.3,0,0,1-.48.84,2.19,2.19,0,0,1-.17.29,2.35,2.35,0,0,1-4,.13,3.19,3.19,0,0,1-.3-.42,6.81,6.81,0,0,1-.48-.84,10.66,10.66,0,0,1-.55-1.53c-.06-.18-.16-.35-.23-.54a7.34,7.34,0,0,1-.37-1,1.09,1.09,0,0,1,.15-.93c.12-.17.23-.2.34,0a3.47,3.47,0,0,1,.22.42c0-.51-.11-1.09-.15-1.66a5.48,5.48,0,0,1,0-.81,1.3,1.3,0,0,1,.09-.41A2.65,2.65,0,0,1,45,11.46a.27.27,0,0,1,.36.12,5.78,5.78,0,0,0,2.89,1.94,5.74,5.74,0,0,0,1.83.29c.15,0,.21,0,.19.25,0,.55-.1,1.1-.14,1.66,0,0,0,.1,0,.19a4.43,4.43,0,0,1,.25-.49c.14-.24.31-.21.41.05A1.74,1.74,0,0,1,50.72,16.66Z"/><path d="M51.64,23.61c-.26.48-.51,1-.8,1.44a8,8,0,0,1-2.34,2.6.32.32,0,0,1-.46,0,6.73,6.73,0,0,1-1-1,9.22,9.22,0,0,0,1.83-1.81A9,9,0,0,0,50.2,22.4,5.76,5.76,0,0,1,51.64,23.61Z"/><path d="M46.72,26.65a5,5,0,0,1-1.12,1.13.21.21,0,0,1-.2,0,6.4,6.4,0,0,1-1.61-1.39A11.55,11.55,0,0,1,42.24,24l-.12-.25A5.63,5.63,0,0,1,43.5,22.5,9.06,9.06,0,0,0,46.72,26.65Z"/><path d="M57.26,19.53V20a.19.19,0,0,1-.19.18H37.13a.19.19,0,0,1-.19-.18v-.47a.19.19,0,0,1,.19-.19H57.07A.19.19,0,0,1,57.26,19.53Z"/><path d="M58.15,39.28a.2.2,0,0,1-.3,0,2.69,2.69,0,0,0-3.91.14c-.09.09-.17.15-.28.09a.22.22,0,0,1,0-.37,3.1,3.1,0,0,1,1.45-.94,3,3,0,0,1,2.7.46l0,0,.24.19.08.08A.23.23,0,0,1,58.15,39.28Z"/><path d="M57.64,39.87c-.08.1-.19.1-.3,0a1.94,1.94,0,0,0-1.52-.55,1.91,1.91,0,0,0-1.27.59l-.11.12a.19.19,0,0,1-.28,0,.23.23,0,0,1,0-.3l.1-.12a2.36,2.36,0,0,1,3.11-.27,2.52,2.52,0,0,1,.25.21A.24.24,0,0,1,57.64,39.87Z"/><path d="M57.15,40.42a.21.21,0,0,1-.34,0,1.19,1.19,0,0,0-1.37-.23,2,2,0,0,0-.41.3c-.12.11-.23.13-.32,0s-.08-.21,0-.34a1.61,1.61,0,0,1,2.31-.12C57.19,40.23,57.21,40.31,57.15,40.42Z"/><path d="M56.62,41a.19.19,0,0,1-.29,0,.53.53,0,0,0-.79,0,.19.19,0,0,1-.28,0,.23.23,0,0,1,0-.32.92.92,0,0,1,1.17-.16l.13.09A.24.24,0,0,1,56.62,41Z"/><path d="M50.78,46.35a.2.2,0,0,1-.18.22l-14.85.71c-.11,0-.19-.09-.2-.21l0-.63a.2.2,0,0,1,.18-.22l14.85-.71c.11,0,.19.09.2.21Z"/><path d="M55.91,49.07a.2.2,0,0,1-.18.22l-19.92,1a.2.2,0,0,1-.2-.21l0-.62a.2.2,0,0,1,.18-.23l19.92-1c.1,0,.19.09.2.21Z"/><path d="M52.66,39.19a1.44,1.44,0,0,0-1.26-1.1,1.41,1.41,0,0,0-1.44.74.16.16,0,0,1-.16.1L48.47,39h0c-.28,0-.56,0-.83,0a.32.32,0,0,0-.3.19l-.31.5a.24.24,0,0,0,0,.3l.25.35c.21.29.21.28.44,0s.19-.17.35,0,.25.25.47,0,.21-.17.36,0,.2.2.4,0,.19-.05.2,0,.16.2.29.18a.25.25,0,0,1,.27.13,1.4,1.4,0,0,0,1.55.54A1.62,1.62,0,0,0,52.66,39.19Zm-.73.88a.42.42,0,0,1,0-.84.41.41,0,0,1,.38.41A.41.41,0,0,1,51.93,40.07Z"/><path class="cls-1" d="M28.56,5.17h0a2.46,2.46,0,0,0-.67-.09,2.87,2.87,0,1,0,2.78,3.49h0a2.59,2.59,0,0,0,.07-.63A2.85,2.85,0,0,0,28.56,5.17Zm-.69,3.94a1.16,1.16,0,0,1-1.16-1.17,1.12,1.12,0,0,1,.37-.84h0a1.17,1.17,0,0,1,2,.85A1.18,1.18,0,0,1,28.28,9,1.41,1.41,0,0,1,27.87,9.11Z"/><path d="M29,7.94A1.18,1.18,0,0,1,28.28,9a1.41,1.41,0,0,1-.41.07,1.16,1.16,0,0,1-1.16-1.17,1.12,1.12,0,0,1,.37-.84h0a1.17,1.17,0,0,1,2,.85Z"/></g></svg>