<svg xmlns="http://www.w3.org/2000/svg" viewBox="0 0 64 64"><defs><style>.cls-1{fill:#80a088;}.cls-2{fill:#08e800;}.cls-3{fill:#828282;}</style></defs><g id="Layer_2" data-name="Layer 2"><path class="cls-1" d="M52.93,25.28a.74.74,0,0,1-.16.19v-.19Z"/><path class="cls-1" d="M52.93,25.28a.74.74,0,0,1-.16.19v-.19Z"/><path class="cls-2" d="M58.64,12,59.07,10a1.67,1.67,0,0,0-1.3-2L51.53,6.71a1.65,1.65,0,0,0-1.31-1.82L43.57,3.51h0L37.18,2.19a1.55,1.55,0,0,0-.83.05l-.18-.06-4.11-1a1.64,1.64,0,0,0-1,.08l-.25-.19a1.65,1.65,0,0,0-2,0l-.06,0a1.66,1.66,0,0,0-2.23.22,1.69,1.69,0,0,0-1.6.66V2a1.67,1.67,0,0,0-1.6.66l-.47.56H22.6s0,.16-.06.17l-.08,0a1.23,1.23,0,0,0-.71.31l0,0a1.52,1.52,0,0,0-.34.33l-.18.24s0,0,0,0L17.34,9.5a1.65,1.65,0,0,0-.32.85L14.4,13.88A1.65,1.65,0,0,0,14.08,15a1.58,1.58,0,0,0-.15.24L11.82,19.4s0,0,0,0a1.66,1.66,0,0,0-1,.85L9.59,22.62v0L8.16,25.43l-.46.91a1,1,0,0,0-.09.22,1.49,1.49,0,0,0-.46.56L4.08,33.17a1.63,1.63,0,0,0-.14,1.1l0,0-3.06,6a1.7,1.7,0,0,0-.07,1.36l-.05.08a1.68,1.68,0,0,0,0,1.84,1.68,1.68,0,0,0-.06,1.77l2.12,3.67a1.64,1.64,0,0,0,.92.74,1.73,1.73,0,0,0,.37,1.33h0a1.52,1.52,0,0,0,.34.33l.22.2.48.24,2.19,1.44.1.06.4.16c.29-.13.51.41.7.45h0a1.67,1.67,0,0,0,.63,0l0,.07,4,1.86a.75.75,0,0,0,.2.1l1.92,1,.42.07.2.23,7,2.83.17-.44,6.07,2.45.34-.83,2.09,1.72,1,.07.62-.23,4.7-6,3.38,2.22,4.48-6.79h1.48V48.32H51V41.06h2.91V35.4h3.79V27.17h2.63v-5h2.34V12ZM52.93,25.28a.74.74,0,0,1-.16.19v-.19Zm-41.81,18a1.36,1.36,0,0,1,1.57-1,16.65,16.65,0,0,1,2.3.85c.24.11.38.45.47.57a1.44,1.44,0,0,1-1.91,1.45c-.54-.19-1.09-.4-1.63-.61C11.17,44.29,10.94,43.91,11.12,43.31Zm34.71-6.82c-.26.48-.42.55-.93.38-1.38-.46-2.76-.91-4.12-1.4a3.76,3.76,0,0,1-2.6-3.54,13,13,0,0,1,.6-1.95c.66-1.39,1.37-2.77,2.14-4.11a5.71,5.71,0,0,1,5-3,6.59,6.59,0,0,1,1.86.31c1.11.29,2.2.64,3.29,1,.66.19.74.33.46.93C50.38,27.49,49.22,30,48,32.4,47.32,33.79,46.56,35.13,45.83,36.49Z"/><path class="cls-1" d="M52.93,25.28a.74.74,0,0,1-.16.19v-.19Z"/></g><g id="Layer_1" data-name="Layer 1"><polygon class="cls-3" points="58.91 13.29 58.91 13.3 58.9 13.29 58.91 13.29"/><path d="M53.57,22.17c-1.54-.45-3.06-.94-4.61-1.35a9.9,9.9,0,0,0-2.62-.43,8,8,0,0,0-7,4.26c-1.08,1.88-2.07,3.82-3,5.77a19.19,19.19,0,0,0-.84,2.73,5.29,5.29,0,0,0,3.64,5c1.92.68,3.85,1.31,5.78,2,.72.24.95.14,1.3-.52,1-1.91,2.1-3.8,3.06-5.74,1.7-3.42,3.33-6.88,5-10.34C54.61,22.63,54.48,22.44,53.57,22.17Zm-2,2.86C50.38,27.49,49.22,30,48,32.4c-.69,1.39-1.45,2.73-2.18,4.09-.26.48-.42.55-.93.38-1.38-.46-2.76-.91-4.12-1.4a3.76,3.76,0,0,1-2.6-3.54,13,13,0,0,1,.6-1.95c.66-1.39,1.37-2.77,2.14-4.11a5.71,5.71,0,0,1,5-3,6.59,6.59,0,0,1,1.86.31c1.11.29,2.2.64,3.29,1C51.75,24.29,51.83,24.43,51.55,25Z"/><path class="cls-2" d="M51.55,25C50.38,27.49,49.22,30,48,32.4c-.69,1.39-1.45,2.73-2.18,4.09-.26.48-.42.55-.93.38-1.38-.46-2.76-.91-4.12-1.4a3.76,3.76,0,0,1-2.6-3.54,13,13,0,0,1,.6-1.95c.66-1.39,1.37-2.77,2.14-4.11a5.71,5.71,0,0,1,5-3,6.59,6.59,0,0,1,1.86.31c1.11.29,2.2.64,3.29,1C51.75,24.29,51.83,24.43,51.55,25Z"/><path d="M63.73,18.93h0l-.06.21a15.06,15.06,0,0,1-.54,1.69L56,43.14c.44,2,1.55,5,.6,5.92-1.39,1.35-2.71,1.24-4.45,1.71-.75.3-3.38.48-4,.89a.87.87,0,0,0-.38.43,4.71,4.71,0,0,1-.42.75l-.13.22a43.31,43.31,0,0,1-3.28,4.88c-2.45,2.78-5.54,5.71-9.43,6a12.87,12.87,0,0,1-4.06-.39C21.83,61.21,13.63,56.94,6,52.62a9.4,9.4,0,0,1-1.33-.94c1.77.89,3.52,1.81,5.31,2.65a98.25,98.25,0,0,0,18.64,6.58,8.82,8.82,0,0,0,5.8-.36,4.94,4.94,0,0,0,.44-.23c-.21-.8-.39-1.53-.56-2.26A1.21,1.21,0,0,0,33,57.17a4.11,4.11,0,0,1-.91-.11,11.72,11.72,0,0,0,5.52-2.51l-.73.76,0,.06,1.12-.65c.6.85,1.23,1.68,1.81,2.54.1.15.05.41.08.81a20.05,20.05,0,0,0,2.2-2.4c1.71-2.56,3.38-5.16,4.94-7.81A210.36,210.36,0,0,0,57.22,28.38c1.61-3.56,3.07-7.18,4.53-10.8a15.73,15.73,0,0,0,.56-2.68l-.18-.1-.71.48c-.54-.15-1.12-.82-1.7-.14-.25-.36-.46-.64-.75-1-.13.48-.22.8-.3,1.12l-.19,0c.13-.51.26-1,.38-1.53a2.09,2.09,0,0,0,0-.36h0c-.12-.17-.3-.32-.33-.51a5.89,5.89,0,0,0-3.7-4.46A88.66,88.66,0,0,0,29.68,1.49a9.36,9.36,0,0,0-9.13,4.06,133,133,0,0,0-8.32,13.16c-.72,1.24-3.06,5-3.66,6.2v0C6.41,29.51,2.44,37.41,1.83,38.82a6.93,6.93,0,0,0-.43,1.26A8.62,8.62,0,0,0,1,42a10.21,10.21,0,0,0,.16,1.45,2.89,2.89,0,0,0,.25.77L2,45.4a2.94,2.94,0,0,0,.63.85l1.6,1.49C10.93,51,32,58,25.38,58.7c-1.57-.47-18.55-6.62-21.72-9.81l-.06,0,.61,2.2C4,51.37,2.9,50,2.76,49.68L2,48.35a7.24,7.24,0,0,0-.58-1.12,3.81,3.81,0,0,0-.35-.71,4.44,4.44,0,0,1-.43-.84L.12,44.22A1.13,1.13,0,0,1,0,43.57c.09-.77.17-1.47.3-2.25a8,8,0,0,1,.47-1.49c0-.12,5.05-10.21,7.6-15.31a.06.06,0,0,0,0-.06c.62-1.44,1.88-4,2.13-4.4a133.22,133.22,0,0,1,9.88-14.8A12.38,12.38,0,0,1,29.66,0a21.75,21.75,0,0,1,4.6.37A94.73,94.73,0,0,1,53.34,5.12c1.59.57,3.2,1.16,4.74,1.87,3.79,1.75,5.42,4.86,5.87,8.72A9.61,9.61,0,0,1,63.73,18.93Z"/><path d="M56.56,21.16c-.52,1.89-7.33,16-8.91,18.36Z"/><path class="cls-2" d="M24.82,5.18l-14.09,25a24.17,24.17,0,0,0,2.18-2.1,2.64,2.64,0,0,1,2-1.11c1.93-.1,3.87-.41,5.76-.62-1.36,3-2.73,6-4.12,9.09l.17.08c.3-.46.58-.93.88-1.38.67-1,1.4-1.92,2-2.93a5.37,5.37,0,0,0,.73-1.95c.07-.56.36-.63.7-.49.64.27,1.25.66,1.82,1a5.52,5.52,0,0,0-1.41,1,12.79,12.79,0,0,0-1,2.15c-.26.57-.28,1.32-1.22,1.3-.1,0-.21.13-.31.21l-1.41,1.3a6.55,6.55,0,0,1-3.35,1.93,10.31,10.31,0,0,0-1.57.52,1.6,1.6,0,0,0,.05.21l1.77.58a13.66,13.66,0,0,1,1.77.62,1.76,1.76,0,0,0,2.13-.3.81.81,0,0,1,.14-.12c1.32-.85,1.79-.86,2.77-.12l1-.76c0,1.29,0,1.29,1.06,1.58.28.07.55.14.83.19.64.1,1-.17,1-.79,0-.37.06-.75.07-1.12,0-1.05,0-2.1,0-3.21-.43.2-.79.38-1.07.5l-2-1.63,4.33-5.71a4,4,0,0,0,.26.81c.09.13.36.3.41.26.4-.27.67,0,.91.21l.83.71c.35.3.7.6,1,.92l.55.48q5.72-10.7,11.45-21.46ZM20,37.21c1.11-.21,1.34-.11,1.67.6Zm2.84-13.76c0,.16,0,.32,0,.48a1.37,1.37,0,0,0,.07.34.92.92,0,0,0,.18.3,1.11,1.11,0,0,0,.52.28,1.1,1.1,0,0,1-1-.31,1,1,0,0,1-.21-.52,1.37,1.37,0,0,0-.11-.36c-.43-1-.23-1.3.86-1.55l-.25.54.54,0,1.12.83-1.8-.24A1,1,0,0,1,22.81,23.45Zm4-2.7c-.18,0-.37-.32-.56-.5a2.19,2.19,0,0,0,.16-.3h0l1.31.14h0a3.06,3.06,0,0,0,.05.32l-.05,0A2.89,2.89,0,0,1,26.78,20.75Zm-.18-1.42c.47-.4.67-.39,1.53,0,0,.07,0,.13,0,.2Zm-2.79-3.26c.05-.16.11-.31.17-.46a3.49,3.49,0,0,1,.82-1.11,6.33,6.33,0,0,1,1.6-1,12.75,12.75,0,0,1,2.82-.92,2.73,2.73,0,0,1,1.49.46,5.72,5.72,0,0,1,1.2.94l.1.12a.91.91,0,0,1,.16.54c-.12.7-.24,1.4-.41,2.09-.05.23-.11.46-.18.68a10.71,10.71,0,0,1-.49,1.22c-.19.4-.41.78-.64,1.17.07-.22.14-.44.2-.66l.09-.29a3.46,3.46,0,0,0,.07-1.28c0-.31-.09-.63-.14-.94s-.05-.32-.07-.47c-.05-.45-.35-.58-.84-.52a4,4,0,0,1-1.47-.07,3.36,3.36,0,0,0-3,.58c-.46.34-.92.7-1.33,1l-.38.3h0c0-.27.06-.64.13-1Zm.74,2.51a.77.77,0,0,1,.2.07.57.57,0,0,1,.13.08.46.46,0,0,1,.07.07.35.35,0,0,1,.05.08L25,19a.82.82,0,0,1,0,.35.2.2,0,0,1,0,.07s0,.06,0,.09l0,.18h0v0a.13.13,0,0,0,0,.06,1.18,1.18,0,0,1,0,.2c0,.09,0,.16-.08.17a2.12,2.12,0,0,1-1,.1,1.36,1.36,0,0,1-.63-.22.8.8,0,0,1-.19-.13,1.09,1.09,0,0,1,1.5-.41,3.18,3.18,0,0,0,.32.16l-.23-.15-.43-.26h0l-.78-.46C23.68,18.32,24.14,18.49,24.55,18.58ZM21.84,28.76c-.35.13-.8-.67-.79-1.71.27.58.53,1.15.8,1.71Zm1.06-1.41a1.55,1.55,0,0,1-1.29-.41.75.75,0,0,1-.14-.17,1,1,0,0,1-.14-.45c-.1-1.05,0-2.11,0-3.17a1.78,1.78,0,0,1,.17-.46q.06.61.09,1.17c0,.37.07.72.13,1.07a15.07,15.07,0,0,0,.49,1.71.26.26,0,0,0,.19.15c.74,0,1.5.18,2.19-.33a4.66,4.66,0,0,1,1.33-.63A5.51,5.51,0,0,1,22.9,27.35Zm1.76-2.59-.1-.16,1.72-1.09.22.35Z"/><path d="M15.08,43a15.88,15.88,0,0,0-2.36-.88,1.61,1.61,0,0,0-1.79,1.13c-.24.72,0,1.2.88,1.53.56.22,1.13.43,1.7.62a1.75,1.75,0,0,0,2.26-1.52C15.55,43.55,15.39,43.12,15.08,43Zm-1.53,2.21c-.54-.19-1.09-.4-1.63-.61-.75-.28-1-.66-.8-1.26a1.36,1.36,0,0,1,1.57-1,16.65,16.65,0,0,1,2.3.85c.24.11.38.45.47.57A1.44,1.44,0,0,1,13.55,45.18Z"/><path class="cls-2" d="M15.46,43.73a1.44,1.44,0,0,1-1.91,1.45c-.54-.19-1.09-.4-1.63-.61-.75-.28-1-.66-.8-1.26a1.36,1.36,0,0,1,1.57-1,16.65,16.65,0,0,1,2.3.85C15.23,43.27,15.37,43.61,15.46,43.73Z"/><path class="cls-3" d="M52.94,16.6h0l0,0A0,0,0,0,1,52.94,16.6Z"/><polygon class="cls-3" points="58.91 13.29 58.91 13.3 58.9 13.29 58.91 13.29"/><path class="cls-3" d="M25,19.68c-.05.15-.05.41-.14.43a1.79,1.79,0,0,1-1.78-.25,1.09,1.09,0,0,1,1.5-.41,4.3,4.3,0,0,0,.43.21Z"/><path d="M57.35,11.93a5,5,0,0,0-3-2.94c-3-1.13-6.07-2.28-9.09-3.41a.61.61,0,0,0-.49.09,1.56,1.56,0,0,1-1.41.21c-1.15-.36-2.33-.69-3.51-1-.62-.15-1-.42-.91-1.06a3.57,3.57,0,0,0-.4-.12c-2.93-.55-5.87-1.14-8.83-1.62a8.32,8.32,0,0,0-3.22,0,8.67,8.67,0,0,0-5.32,3.57c-2,3.06-4.13,6.09-6,9.26C12.25,20,9.45,25.24,6.64,30.43,5.78,32,5,33.67,4.32,35.32a37.26,37.26,0,0,0-2,5.15A5.17,5.17,0,0,0,5,46.53c1,.61,2.05,1.18,3.11,1.71A92.23,92.23,0,0,0,29,55.8a8.57,8.57,0,0,0,9.27-3.18,53.69,53.69,0,0,0,3.34-5c1.12-1.76,2.18-3.56,3.25-5.35.44-.74.33-1-.45-1.34-.32-.14-.64-.26-1-.37-1.9-.7-3.8-1.38-5.7-2.09a4.29,4.29,0,0,1-2.45-2.54,6.67,6.67,0,0,1,.34-5.75c.84-1.77,1.8-3.48,2.68-5.22a9.66,9.66,0,0,1,3.46-3.91,8.18,8.18,0,0,1,7.06-1.12c1.7.52,3.41,1,5.11,1.49,1,.3,1.25.22,1.62-.73.61-1.57,1.21-3.13,1.77-4.71A5.6,5.6,0,0,0,57.35,11.93ZM13.51,45.37c-.57-.19-1.14-.4-1.7-.62-.85-.33-1.12-.81-.88-1.53a1.61,1.61,0,0,1,1.79-1.13,15.88,15.88,0,0,1,2.36.88c.31.15.47.58.69.88A1.75,1.75,0,0,1,13.51,45.37ZM30.38,31.51,29.83,31c-.35-.32-.69-.61-1-.91h0L28,29.4c-.24-.21-.51-.48-.91-.21-.05,0-.32-.13-.41-.26a4,4,0,0,1-.26-.81L22,33.83l2,1.63c.28-.12.64-.3,1.07-.5,0,1.11,0,2.16,0,3.21,0,.37-.05.75-.07,1.12,0,.62-.38.89-1,.79-.28,0-.55-.12-.83-.19-1.07-.29-1.07-.29-1.06-1.58l-1,.76c-1-.74-1.45-.73-2.77.12a.81.81,0,0,0-.14.12,1.76,1.76,0,0,1-2.13.3A13.66,13.66,0,0,0,14.36,39l-1.77-.58a1.6,1.6,0,0,1-.05-.21,10.31,10.31,0,0,1,1.57-.52,6.55,6.55,0,0,0,3.35-1.93l1.41-1.3c.1-.08.21-.21.31-.21.94,0,1-.73,1.22-1.3a12.79,12.79,0,0,1,1-2.15,5.52,5.52,0,0,1,1.41-1c-.57-.31-1.18-.7-1.82-1-.34-.14-.63-.07-.7.49a5.37,5.37,0,0,1-.73,1.95c-.61,1-1.34,1.95-2,2.93-.3.45-.58.92-.88,1.38l-.17-.08c1.39-3,2.76-6.1,4.12-9.09-1.89.21-3.83.52-5.76.62a2.64,2.64,0,0,0-2,1.11,24.17,24.17,0,0,1-2.18,2.1l14.09-25,17,4.87Q36.09,20.83,30.38,31.51Zm22.56-14.9h0l0,0a0,0,0,0,1,0,0Z"/><path d="M20,37.21c1.11-.21,1.34-.11,1.67.6Z"/><path class="cls-3" d="M52.94,16.6h0l0,0A0,0,0,0,1,52.94,16.6Z"/><path d="M23.58,17.48a12.33,12.33,0,0,1,.23-1.41,4.21,4.21,0,0,1,2.59-2.56,12.75,12.75,0,0,1,2.82-.92,2.73,2.73,0,0,1,1.49.46,5.72,5.72,0,0,1,1.2.94.87.87,0,0,1,.26.66,21.68,21.68,0,0,1-.6,2.77,10.81,10.81,0,0,1-1.12,2.39c.1-.31.2-.63.28-.95a6.77,6.77,0,0,0-.13-2.69c-.05-.45-.35-.58-.84-.52a4,4,0,0,1-1.47-.07,3.36,3.36,0,0,0-3,.58C24.68,16.61,24.08,17.1,23.58,17.48Z"/><path d="M21.45,22.69c.08.83.1,1.54.22,2.24a15.07,15.07,0,0,0,.49,1.71.26.26,0,0,0,.19.15c.74,0,1.5.18,2.19-.33a4.66,4.66,0,0,1,1.33-.63,5.51,5.51,0,0,1-3,1.52,1.3,1.3,0,0,1-1.57-1c-.1-1.05,0-2.11,0-3.17A1.78,1.78,0,0,1,21.45,22.69Z"/><path d="M23.48,22.62l1.12.83-1.81-.24c.09.61-.14,1.37.82,1.64-.68,0-1.08-.21-1.17-.83a1.37,1.37,0,0,0-.11-.36c-.43-1-.23-1.3.86-1.55l-.25.54Z"/><path d="M25,19.66l-1.56-.93c.23-.41.69-.24,1.1-.15.68.15.49.66.45,1.1Z"/><path d="M26.39,19.94l1.31.14.06.32a3.21,3.21,0,0,1-1,.35c-.18,0-.37-.32-.56-.5Z"/><path d="M26.5,23.86l-1.84.9-.1-.16,1.72-1.09Z"/><path d="M28.11,19.51l-1.51-.18c.47-.4.67-.39,1.53,0Z"/><path d="M21.05,27.05l.79,1.71C21.49,28.89,21,28.09,21.05,27.05Z"/><path d="M32.62,23.3,18.75,18.39a.53.53,0,0,1-.33-.69h0a.54.54,0,0,1,.69-.32L33,22.29a.53.53,0,0,1,.33.69h0A.54.54,0,0,1,32.62,23.3Z"/><path d="M27.17,8c-.09.25-.32.42-.5.38l-1.31-.59-.82,1.77a.6.6,0,0,1-.38.37c-.28.06-.43-.27-.27-.62l1.26-2.71,0,0c.62.28,1.23.55,1.84.84A.41.41,0,0,1,27.17,8Z"/><path d="M17,25.77a.45.45,0,0,1-.5.31l-1.92-.87,1.26-2.7a.54.54,0,0,1,.35-.33.26.26,0,0,1,.31.16.55.55,0,0,1,0,.4,1,1,0,0,1-.05.12l-.81,1.74,1.27.58C17,25.26,17.06,25.52,17,25.77Z"/><path d="M38.91,11.49l-1.25,2.69c-.12.27-.32.4-.51.35s-.25-.34-.13-.59c.26-.59.53-1.16.8-1.74l0-.09-1.24-.57a.36.36,0,0,1-.19-.42c.06-.33.35-.58.57-.49l.4.17Z"/><path d="M30.83,28.87l-1.25,2.69-.06,0-1.81-.81c-.14-.06-.22-.18-.19-.41s.34-.61.57-.51l1.28.58.83-1.79c.13-.28.35-.42.53-.34S31,28.59,30.83,28.87Z"/><path class="cls-2" d="M52.74,19.2c-.05.14-.07.22-.1.3a.61.61,0,0,1-.77.45.59.59,0,0,1-.37-.8,7.66,7.66,0,0,0,.25-3.62,8,8,0,0,0-5.41-6.34c-.32-.12-.57-.26-.55-.63a.6.6,0,0,1,.86-.51,9,9,0,0,1,4.09,2.68,9.09,9.09,0,0,1,2.2,7.53s0,.07,0,.11C52.85,18.66,52.79,19,52.74,19.2Z"/><path class="cls-2" d="M46.29,10.2A7.07,7.07,0,0,1,50.78,18a6.66,6.66,0,0,1-.22.88.6.6,0,0,1-.76.46.56.56,0,0,1-.38-.79,5.88,5.88,0,0,0-3.53-7.18,3.61,3.61,0,0,1-.42-.16.55.55,0,0,1-.31-.73.58.58,0,0,1,.71-.37C46,10.1,46.15,10.16,46.29,10.2Z"/><path class="cls-2" d="M48.51,18c-.15.5-.33.67-.68.63a.6.6,0,0,1-.5-.84A3.54,3.54,0,0,0,46.2,14,4.85,4.85,0,0,0,45,13.3c-.41-.19-.6-.45-.47-.81s.42-.45.86-.31A4.86,4.86,0,0,1,48.51,18Z"/><path class="cls-2" d="M46.42,17.5a.63.63,0,0,1-.76.5.56.56,0,0,1-.42-.72,1.58,1.58,0,0,0-1.06-2,.55.55,0,0,1-.33-.74.59.59,0,0,1,.78-.35,2.76,2.76,0,0,1,1.86,2.85C46.47,17.22,46.43,17.38,46.42,17.5Z"/></g></svg>